# xmcd
#
# Track frame offsets:
#	150
#	1273
#	21178
#	35480
#	52111
#	70054
#	90260
#	110768
#	129741
#	146366
#	165612
#	181693
#	192837
#
# Disc length: 2884 seconds
# Revision: 0
# Processed by: cddbd v1.5.2PL0 Copyright (c) Steve Scherf et al.
# Submitted via: dBpowerAMP V12.0
#
DISCID=a60b420d
DTITLE=The Dave Muskett Acoustic Blues Band - Live At The Slippery Noodle Inn
DYEAR=2016
DGENRE=Blues
TTITLE0=Introduction
TTITLE1=That Kind Of Walk
TTITLE2=Ain't My Good Girl Now
TTITLE3=She Can't Give Me The Blues
TTITLE4=Handyman Blues
TTITLE5=Ain't Got It All
TTITLE6=Rain Song
TTITLE7=Sweet Mary Jane
TTITLE8=Got The Need
TTITLE9=Semi-Naked Shoe-Shine
TTITLE10=Take A Look At This
TTITLE11=Pet That Thing
TTITLE12=You Gotta Know
EXTD=
EXTT0=
EXTT1=
EXTT2=
EXTT3=
EXTT4=
EXTT5=
EXTT6=
EXTT7=
EXTT8=
EXTT9=
EXTT10=
EXTT11=
EXTT12=
PLAYORDER=
